HIERARCHY
ROOT hip
{
	OFFSET 0.000000 0.000000 0.000000 
	CHANNELS 6 Xposition Yposition Zposition Xrotation Zrotation Yrotation
	JOINT abdomen
	{
		OFFSET 0.000000 3.402643 0.000000 
		CHANNELS 3 Xrotation Zrotation Yrotation
		JOINT chest
		{
			OFFSET 0.000000 8.438565 -0.680529 
			CHANNELS 3 Xrotation Zrotation Yrotation
			JOINT neck
			{
				OFFSET 0.000000 10.207942 -0.272212 
				CHANNELS 3 Xrotation Zrotation Yrotation
				JOINT head
				{
					OFFSET 0.000000 3.130431 0.000000 
					CHANNELS 3 Xrotation Zrotation Yrotation
					End Site
					{
						OFFSET 0.000000 3.130435 0.000000 
					}
				}
			}
			JOINT lCollar
			{
				OFFSET 3.470700 6.669187 -0.816635 
				CHANNELS 3 Yrotation Zrotation Xrotation
				JOINT lShldr
				{
					OFFSET 3.198488 0.000000 0.000000 
					CHANNELS 3 Zrotation Yrotation Xrotation
					JOINT lForeArm
					{
						OFFSET 10.139888 0.000000 0.000000 
						CHANNELS 3 Yrotation Zrotation Xrotation
						JOINT lHand
						{
							OFFSET 8.370511 0.000000 0.000000 
							CHANNELS 3 Zrotation Yrotation Xrotation
							End Site
							{
								OFFSET 4.083176 0.000000 0.000000 
							}
						}
					}
				}
			}
			JOINT rCollar
			{
				OFFSET -3.470700 6.669187 -0.816635 
				CHANNELS 3 Yrotation Zrotation Xrotation
				JOINT rShldr
				{
					OFFSET -3.198488 0.000000 0.000000 
					CHANNELS 3 Zrotation Yrotation Xrotation
					JOINT rForeArm
					{
						OFFSET -10.139888 0.000000 0.000000 
						CHANNELS 3 Yrotation Zrotation Xrotation
						JOINT rHand
						{
							OFFSET -8.370511 0.000000 0.000000 
							CHANNELS 3 Zrotation Yrotation Xrotation
							End Site
							{
								OFFSET -4.083176 0.000000 0.000000 
							}
						}
					}
				}
			}
		}
	}
	JOINT lThigh
	{
		OFFSET 5.308129 -1.633274 1.361059 
		CHANNELS 3 Xrotation Zrotation Yrotation
		JOINT lShin
		{
			OFFSET -2.041588 -20.007561 0.000000 
			CHANNELS 3 Xrotation Zrotation Yrotation
			JOINT lFoot
			{
				OFFSET 0.000000 -19.190928 -1.224953 
				CHANNELS 3 Xrotation Yrotation Zrotation
				End Site
				{
					OFFSET 0.000000 -2.449906 4.627600 
				}
			}
		}
	}
	JOINT rThigh
	{
		OFFSET -5.308129 -1.633274 1.361059 
		CHANNELS 3 Xrotation Zrotation Yrotation
		JOINT rShin
		{
			OFFSET 2.041588 -20.007561 0.000000 
			CHANNELS 3 Xrotation Zrotation Yrotation
			JOINT rFoot
			{
				OFFSET 0.000000 -19.190928 -1.224953 
				CHANNELS 3 Xrotation Yrotation Zrotation
				End Site
				{
					OFFSET 0.000000 -2.449906 4.627600 
				}
			}
		}
	}
}
MOTION
Frames: 14
Frame Time: 0.011111
4.023160 42.874470 -24.879061 -22.418266 -13.606665 -34.089294 65.127968 -3.725291 -0.673101 -20.626860 -0.122617 0.120513 -14.199325 -5.176227 0.137267 -1.106619 10.522233 -1.592405 2.424333 -4.683778 1.783845 -38.847282 -66.458687 59.656471 -84.176605 3.753608 25.592583 8.524705 12.647240 -47.132214 -2.738486 -1.140572 2.095526 49.700874 45.103382 43.041061 85.990791 -1.539159 28.534567 -8.534408 -12.637552 25.726419 -66.500404 38.169979 16.624382 141.176117 7.989877 -7.385555 -15.616729 -10.881832 -6.314257 -68.827629 -61.121059 -20.825455 145.816559 -8.470999 6.873588 -13.001651 7.049743 4.847816 
4.011132 42.900333 -24.861319 -22.520237 -13.550474 -34.293377 65.129189 -3.882320 -0.756211 -20.597633 -0.083406 0.129336 -14.104721 -5.281205 0.111317 -1.435080 10.426201 -1.674236 2.424333 -4.683778 1.783845 -38.932053 -66.331802 59.734882 -84.190491 3.739595 25.604380 8.524705 12.647240 -47.278694 -2.738486 -1.140572 2.095526 49.669872 45.054703 43.128029 85.991280 -1.539883 28.544300 -8.534408 -12.637552 25.677593 -66.255112 38.246822 16.641886 141.006790 7.969600 -7.409816 -15.178238 -11.762538 -6.540660 -69.032921 -61.141335 -20.493748 145.757477 -8.470923 6.869441 -12.887168 7.233016 4.899832 
3.997900 42.912060 -24.857109 -22.496439 -13.577694 -34.435947 65.142509 -3.953993 -0.710474 -20.597685 -0.053677 0.148205 -14.056577 -5.264947 0.050900 -1.813334 10.181122 -1.829623 2.424333 -4.683778 1.783845 -38.953312 -66.282997 59.744926 -84.198372 3.733417 25.614445 8.524705 12.647240 -47.542370 -2.738486 -1.140572 2.095526 49.628689 45.006062 43.110123 85.993431 -1.541537 28.563734 -8.534408 -12.637552 25.531109 -66.342224 38.431557 16.474699 140.936966 7.959348 -7.419705 -14.848297 -12.442017 -6.699053 -69.042465 -60.916416 -20.427135 145.727768 -8.470783 6.872211 -12.821355 7.189777 4.882644 
3.985269 42.909058 -24.862822 -22.387606 -13.682850 -34.539009 65.175705 -3.907508 -0.591580 -20.626925 -0.082441 0.168431 -14.008813 -5.243813 -0.030793 -2.173581 10.051878 -2.011877 2.424333 -4.683778 1.783845 -38.816616 -66.292648 59.724430 -84.213463 3.720044 25.626144 8.524705 12.647240 -47.727917 -2.738486 -1.140572 2.095526 49.689869 45.015545 43.079815 85.996300 -1.532145 28.564590 -8.534408 -12.637552 25.404156 -66.703064 38.694748 16.104753 140.897247 7.959141 -7.430533 -14.464058 -13.013740 -6.843435 -68.856133 -60.503551 -20.617723 145.706802 -8.460647 6.881780 -12.784031 6.954555 4.803140 
3.973541 42.918072 -24.860113 -22.308435 -13.890497 -34.699184 65.242409 -3.824363 -0.388465 -20.616982 -0.179655 0.190170 -14.012048 -5.362208 -0.021506 -2.394356 10.211164 -2.054820 2.424333 -4.683778 1.783845 -38.648369 -66.302261 59.723053 -84.241623 3.692173 25.649067 8.524705 12.647240 -47.708385 -2.738486 -1.140572 2.095526 49.761513 45.054272 43.091728 85.993904 -1.541618 28.563719 -8.534408 -12.637552 25.355328 -66.865677 39.160694 15.722976 140.816559 7.945120 -7.449792 -14.081215 -13.716758 -6.985731 -68.348099 -60.083473 -21.001917 145.657761 -8.460713 6.873263 -12.797467 6.908923 4.802100 
3.960910 42.933113 -24.846281 -22.223589 -14.012808 -34.885906 65.194504 -3.784773 -0.226243 -20.519152 -0.276994 0.221215 -13.985245 -5.483222 0.015801 -2.603623 10.411125 -2.048827 2.424333 -4.683778 1.783845 -38.532616 -66.321686 59.732121 -84.248795 3.685591 25.659809 8.524705 12.647240 -47.610733 -2.738486 -1.140572 2.095526 49.792522 45.102951 43.131714 85.993172 -1.540854 28.553993 -8.534408 -12.637552 25.355328 -66.881088 39.546803 15.561073 140.689178 7.941429 -7.428929 -13.851061 -14.273241 -7.127323 -68.016571 -59.889091 -21.214390 145.637085 -8.450643 6.873780 -12.807500 7.030929 4.822066 
3.950084 42.928303 -24.836357 -22.128330 -14.053576 -34.974846 65.099434 -3.724692 -0.125657 -20.460400 -0.364896 0.232461 -13.955455 -5.457312 -0.004393 -2.792579 10.365706 -2.101957 2.424333 -4.683778 1.783845 -38.427097 -66.380165 59.819454 -84.227875 3.706935 25.647007 8.524705 12.647240 -47.825577 -2.738486 -1.140572 2.095526 49.833443 45.122292 43.103645 85.992706 -1.540772 28.554005 -8.534408 -12.637552 25.286966 -67.049026 39.724667 15.383671 140.648941 7.931376 -7.437411 -13.682699 -14.591856 -7.182763 -68.024826 -59.825573 -21.267365 145.676651 -8.455339 6.882312 -12.775472 7.023322 4.826763 
3.941363 42.909954 -24.836958 -22.063374 -14.048653 -34.983490 65.097031 -3.693294 -0.111450 -20.450584 -0.394421 0.223218 -13.972973 -5.379041 -0.012167 -2.929150 10.274181 -2.098435 2.424333 -4.683778 1.783845 -38.311371 -66.389801 59.886299 -84.205605 3.726883 25.625191 8.524705 12.647240 -48.343151 -2.738486 -1.140572 2.095526 49.854191 45.161255 43.081882 85.993408 -1.540895 28.553989 -8.534408 -12.637552 25.111185 -67.274017 39.744648 15.195517 140.668701 7.941108 -7.452741 -13.505117 -14.723193 -7.188803 -68.133034 -59.828354 -21.261272 145.727768 -8.470788 6.872199 -12.720350 6.964031 4.802271 
3.933243 42.894016 -24.834854 -22.053291 -14.024952 -34.992973 65.135811 -3.679225 -0.116603 -20.431089 -0.374970 0.222701 -13.905519 -5.450614 0.016997 -3.206035 10.335555 -2.100162 2.424333 -4.683778 1.783845 -38.279823 -66.389763 59.867176 -84.205612 3.726242 25.615448 8.524705 12.647240 -48.528698 -2.738486 -1.140572 2.095526 49.773178 45.210468 43.043213 85.997719 -1.533028 28.574295 -8.534408 -12.637552 25.033064 -67.392647 39.755970 15.088482 140.697815 7.935066 -7.452158 -13.382681 -14.792301 -7.184919 -68.211380 -59.868500 -21.274658 145.767502 -8.471053 6.865254 -12.572371 6.944389 4.780415 
3.926927 42.885601 -24.827335 -22.150927 -13.959836 -34.981007 65.208328 -3.704349 -0.205144 -20.401859 -0.336401 0.202237 -13.751624 -5.567715 0.016601 -3.622471 10.352659 -2.146080 2.424333 -4.683778 1.783845 -38.290409 -66.380013 59.838009 -84.220047 3.713152 25.636942 8.524705 12.647240 -48.362682 -2.738486 -1.140572 2.095526 49.692719 45.318272 43.021236 85.993172 -1.540854 28.553993 -8.534408 -12.637552 25.023298 -67.221809 39.662888 15.189326 140.668701 7.941103 -7.452753 -13.334626 -14.909735 -7.216874 -68.250046 -60.092033 -21.255871 145.787186 -8.471071 6.866652 -12.332585 7.066087 4.800767 
3.918206 42.880787 -24.821321 -22.322472 -13.821855 -34.961514 65.307388 -3.802826 -0.430401 -20.401930 -0.297905 0.172201 -13.603019 -5.526097 0.006860 -3.986483 10.234509 -2.173217 2.424333 -4.683778 1.783845 -38.238617 -66.272530 59.700615 -84.227249 3.705954 25.637312 8.524705 12.647240 -48.225964 -2.738486 -1.140572 2.095526 49.724674 45.464611 43.100285 85.984009 -1.557109 28.523396 -8.534408 -12.637552 24.964703 -66.880814 39.468414 15.393918 140.609833 7.931347 -7.429806 -13.318748 -15.032855 -7.234487 -68.445641 -60.569954 -21.023121 145.824783 -8.455688 6.879174 -12.115630 7.332193 4.842118 
3.906778 42.875072 -24.811098 -22.503540 -13.746090 -34.958649 65.453621 -3.866067 -0.671236 -20.411716 -0.288864 0.133009 -13.532365 -5.472239 0.015327 -4.160856 10.143854 -2.144603 2.424333 -4.683778 1.783845 -38.134541 -66.135689 59.485226 -84.227882 3.706293 25.637264 8.524705 12.647240 -48.186901 -2.738486 -1.140572 2.095526 49.725422 45.542732 43.227238 85.986458 -1.547649 28.524269 -8.534408 -12.637552 24.964703 -66.422684 39.439957 15.681085 140.559662 7.921252 -7.440927 -13.315197 -15.118982 -7.280107 -68.563553 -61.069813 -20.817574 145.884857 -8.465821 6.881074 -12.025819 7.572392 4.891144 
3.897456 42.858833 -24.799067 -22.543200 -13.834435 -34.977989 65.577484 -3.775857 -0.706436 -20.450832 -0.260067 0.103331 -13.434186 -5.511335 0.052342 -4.325140 10.094153 -2.074443 2.424333 -4.683778 1.783845 -38.104057 -65.998932 59.289505 -84.220047 3.713152 25.636942 8.524705 12.647240 -48.265026 -2.738486 -1.140572 2.095526 49.613518 45.562790 43.331310 85.992706 -1.540772 28.554005 -8.534408 -12.637552 25.052593 -66.265511 39.712368 15.677236 140.579422 7.930993 -7.456354 -13.230381 -15.305669 -7.319695 -68.210899 -61.194370 -21.115807 145.906937 -8.481405 6.854679 -12.055573 7.576621 4.906672 
3.885727 42.843800 -24.766287 -22.418922 -13.925427 -35.164455 65.431808 -3.700015 -0.556800 -20.314007 -0.318726 0.113501 -13.315293 -5.503211 0.075556 -4.568338 9.972731 -2.042012 2.424333 -4.683778 1.783845 -38.051853 -65.959801 59.015377 -84.219406 3.712811 25.636990 8.524705 12.647240 -48.020885 -2.738486 -1.140572 2.095526 49.501614 45.582832 43.369820 85.997482 -1.532988 28.574303 -8.534408 -12.637552 25.160017 -66.286804 40.309990 15.722362 140.668045 7.935067 -7.459816 -13.238581 -15.510691 -7.363842 -68.007042 -60.796654 -21.365440 145.825775 -8.465740 6.877024 -12.048867 7.253964 4.818419 
